<svg xmlns="http://www.w3.org/2000/svg" xmlns:xlink="http://www.w3.org/1999/xlink" width="500" zoomAndPan="magnify" viewBox="0 0 375 374.999991" height="500" preserveAspectRatio="xMidYMid meet" version="1.0"><defs><clipPath id="d5fc9ebd78"><path d="M 46.875 76 L 278 76 L 278 311.777344 L 46.875 311.777344 Z M 46.875 76 " clip-rule="nonzero"/></clipPath><clipPath id="956a87b8c5"><path d="M 62 299 L 117 299 L 117 311.777344 L 62 311.777344 Z M 62 299 " clip-rule="nonzero"/></clipPath><clipPath id="39a46efbe0"><path d="M 62 84 L 278 84 L 278 311.777344 L 62 311.777344 Z M 62 84 " clip-rule="nonzero"/></clipPath><clipPath id="25b6277ba7"><path d="M 226 71 L 328.125 71 L 328.125 98 L 226 98 Z M 226 71 " clip-rule="nonzero"/></clipPath><clipPath id="2bd6ae1d40"><path d="M 221 63.527344 L 243 63.527344 L 243 102 L 221 102 Z M 221 63.527344 " clip-rule="nonzero"/></clipPath></defs><g clip-path="url(#d5fc9ebd78)"><path fill="#2e2e2e" d="M 62.03125 231.621094 C 27.929688 278.695312 62.03125 299.71875 62.03125 299.71875 C 62.03125 299.71875 138.019531 340.179688 220.925781 270.109375 C 347.246094 145.757812 220.925781 84.570312 220.925781 84.570312 C 220.925781 84.570312 178.558594 63.648438 139.34375 87.800781 C 139.34375 87.800781 92.214844 114.910156 79.386719 189.292969 C 73.953125 217.308594 62.03125 231.621094 62.03125 231.621094 " fill-opacity="1" fill-rule="nonzero"/></g><path fill="#2e2e2e" d="M 79.160156 190.449219 C 84.398438 157.054688 97.179688 132.882812 109.617188 116.421875 C 97.53125 132.578125 85.082031 156.277344 79.386719 189.292969 C 79.3125 189.683594 79.234375 190.070312 79.160156 190.449219 M 139.34375 87.800781 C 153.246094 78.960938 167.898438 76.160156 180.890625 76.160156 C 180.984375 76.160156 181.070312 76.160156 181.160156 76.160156 C 168.257812 76.199219 153.59375 79.023438 139.34375 87.800781 " fill-opacity="1" fill-rule="nonzero"/><path fill="#2e2e2e" d="M 78.808594 192.761719 C 78.921875 191.988281 79.035156 191.214844 79.160156 190.449219 C 79.234375 190.070312 79.3125 189.683594 79.386719 189.292969 C 85.082031 156.277344 97.53125 132.578125 109.617188 116.421875 C 124.730469 96.429688 139.34375 87.800781 139.34375 87.800781 C 153.59375 79.023438 168.261719 76.199219 181.164062 76.160156 C 203.539062 76.226562 220.925781 84.570312 220.925781 84.570312 C 211.089844 81.785156 201.839844 80.523438 193.144531 80.523438 C 111.085938 80.523438 78.808594 192.761719 78.808594 192.761719 " fill-opacity="1" fill-rule="nonzero"/><g clip-path="url(#956a87b8c5)"><path fill="#2e2e2e" d="M 116.875 311.339844 C 83.863281 311.339844 62.03125 299.71875 62.03125 299.71875 C 62.117188 299.757812 83.929688 311.332031 116.875 311.339844 " fill-opacity="1" fill-rule="nonzero"/></g><g clip-path="url(#39a46efbe0)"><path fill="#2e2e2e" d="M 116.875 311.339844 C 83.929688 311.332031 62.117188 299.757812 62.03125 299.71875 C 62.164062 299.730469 74.339844 301.179688 92.058594 301.179688 C 123.492188 301.179688 172.351562 296.621094 202.167969 271.414062 C 312.703125 159.894531 220.921875 84.570312 220.921875 84.570312 C 220.921875 84.570312 347.246094 145.757812 220.921875 270.109375 C 182.445312 302.628906 145.46875 311.339844 116.878906 311.339844 " fill-opacity="1" fill-rule="nonzero"/></g><g clip-path="url(#25b6277ba7)"><path fill="#2e2e2e" d="M 226.003906 97.578125 C 226.003906 97.578125 239.402344 66.503906 274.476562 72.277344 C 309.550781 78.046875 328.125 71.558594 328.125 71.558594 C 328.125 71.558594 305.6875 106.882812 263.472656 84.570312 C 246.328125 76.269531 226.003906 97.578125 226.003906 97.578125 " fill-opacity="1" fill-rule="nonzero"/></g><g clip-path="url(#2bd6ae1d40)"><path fill="#2e2e2e" d="M 242.515625 70.164062 C 242.515625 70.164062 241.398438 62.617188 234.558594 63.769531 C 219.753906 71.878906 221.730469 100.261719 221.730469 100.261719 C 221.730469 100.261719 222.984375 104.15625 229.230469 99.488281 C 228.492188 83.082031 242.515625 70.164062 242.515625 70.164062 " fill-opacity="1" fill-rule="nonzero"/></g></svg>